# xmcd
#
# Track frame offsets:
# 150
# 15123
# 32064
# 47473
# 69187
# 86487
# 102287
# 112549
# 130454
# 142238
# 153967
# 168118
# 192246
# 204552
#
# Disc length: 3049 seconds
#
#
# Revision: 0
# Processed by: cddbd v1.5.1PL0 Copyright (c) Steve Scherf et al.
# Submitted via: FreeRIP 2.90 
#
DISCID=a70be70e
DTITLE=The Jimmy Bowskill Band - Soap Bars and Dog Ears
DYEAR=2004
DGENRE=Blues
TTITLE0=Link Into Your Chain
TTITLE1=Hug You
TTITLE2=The Truth
TTITLE3=Bailieboro
TTITLE4=Little Baby
TTITLE5=Willie Does It All
TTITLE6=It's So Fine
TTITLE7=Jivin' Blues
TTITLE8=Grinnin' In Your Face
TTITLE9=Six O' Clock
TTITLE10=Big Fat Minor
TTITLE11=Why
TTITLE12=Sad Song, Happy Tune
TTITLE13=Duelin' Bowlers
EXTD=Bluesfestradio.com
EXTT0=
EXTT1=
EXTT2=
EXTT3=
EXTT4=
EXTT5=
EXTT6=
EXTT7=
EXTT8=
EXTT9=
EXTT10=
EXTT11=
EXTT12=
EXTT13=
PLAYORDER=
